<mxfile host="app.diagrams.net" modified="2023-11-28T14:24:36.509Z" agent="Mozilla/5.0 (Windows NT 10.0; Win64; x64) AppleWebKit/537.36 (KHTML, like Gecko) Chrome/119.0.0.0 Safari/537.36" etag="Ze_K__8wx4u4ihyJvOjw" version="22.1.4" type="github">
  <diagram name="Page-1" id="97916047-d0de-89f5-080d-49f4d83e522f">
    <mxGraphModel dx="1744" dy="1156" grid="1" gridSize="10" guides="1" tooltips="1" connect="1" arrows="1" fold="1" page="1" pageScale="1.5" pageWidth="1169" pageHeight="827" background="none" math="0" shadow="0">
      <root>
        <mxCell id="0" />
        <mxCell id="1" parent="0" />
        <mxCell id="rq-8bAVdsfiI7tYzPObx-57" style="edgeStyle=none;curved=1;rounded=0;orthogonalLoop=1;jettySize=auto;html=1;fontSize=12;startSize=8;endSize=8;strokeWidth=4;" edge="1" parent="1" source="2">
          <mxGeometry relative="1" as="geometry">
            <mxPoint x="772" y="400" as="targetPoint" />
          </mxGeometry>
        </mxCell>
        <mxCell id="2" value="사업개요" style="rounded=1;fillColor=#fff2cc;strokeColor=#d6b656;shadow=1;fontStyle=1;fontSize=14;strokeWidth=4;" parent="1" vertex="1">
          <mxGeometry x="672" y="205.5" width="200" height="74.5" as="geometry" />
        </mxCell>
        <mxCell id="4" value="IT 인프라서비스" style="rounded=1;fillColor=#ffe6cc;strokeColor=#d79b00;shadow=1;fontStyle=1;fontSize=14;" parent="1" vertex="1">
          <mxGeometry x="302" y="455.5" width="200" height="60" as="geometry" />
        </mxCell>
        <mxCell id="5" value="스마트팩토리" style="rounded=1;fillColor=#ffe6cc;strokeColor=#d79b00;shadow=1;fontStyle=1;fontSize=14;" parent="1" vertex="1">
          <mxGeometry x="530" y="455.5" width="200" height="64.5" as="geometry" />
        </mxCell>
        <mxCell id="6" value="Digital Transformation" style="rounded=1;fillColor=#ffe6cc;strokeColor=#d79b00;shadow=1;fontStyle=1;fontSize=14;" parent="1" vertex="1">
          <mxGeometry x="877" y="450" width="200" height="60" as="geometry" />
        </mxCell>
        <mxCell id="8" value="인프라 si 서비스" style="rounded=1;shadow=1;fontStyle=1;fontSize=14;" parent="1" vertex="1">
          <mxGeometry x="302" y="555.5" width="200" height="60" as="geometry" />
        </mxCell>
        <mxCell id="9" value="IT 아키텍쳐 설계 , 공급" style="rounded=1;shadow=1;fontStyle=1;fontSize=14;" parent="1" vertex="1">
          <mxGeometry x="302" y="670" width="200" height="60" as="geometry" />
        </mxCell>
        <mxCell id="10" value="진단/컨설팅 서비스" style="rounded=1;shadow=1;fontStyle=1;fontSize=14;" parent="1" vertex="1">
          <mxGeometry x="302" y="765.5" width="200" height="60" as="geometry" />
        </mxCell>
        <mxCell id="11" value="유지보수 서비스" style="rounded=1;shadow=1;fontStyle=1;fontSize=14;" parent="1" vertex="1">
          <mxGeometry x="302" y="870" width="200" height="60" as="geometry" />
        </mxCell>
        <mxCell id="13" value="프로세스 컨설팅" style="rounded=1;shadow=1;fontStyle=1;fontSize=14;" parent="1" vertex="1">
          <mxGeometry x="530" y="560" width="200" height="60" as="geometry" />
        </mxCell>
        <mxCell id="14" value="데이터 관점의 설계" style="rounded=1;shadow=1;fontStyle=1;fontSize=14;" parent="1" vertex="1">
          <mxGeometry x="530" y="675.5" width="200" height="60" as="geometry" />
        </mxCell>
        <mxCell id="15" value="pop/mes/eap" style="rounded=1;shadow=1;fontStyle=1;fontSize=14;" parent="1" vertex="1">
          <mxGeometry x="530" y="780" width="200" height="60" as="geometry" />
        </mxCell>
        <mxCell id="16" value="관리의 용의성" style="rounded=1;shadow=1;fontStyle=1;fontSize=14;" parent="1" vertex="1">
          <mxGeometry x="530" y="885.5" width="200" height="60" as="geometry" />
        </mxCell>
        <mxCell id="18" value="Management Programs &#xa;Division" style="rounded=1;shadow=1;fontStyle=1;fontSize=14;" parent="1" vertex="1">
          <mxGeometry x="877" y="560" width="200" height="60" as="geometry" />
        </mxCell>
        <mxCell id="19" value="Office of Financial &#xa;Management" style="rounded=1;shadow=1;fontStyle=1;fontSize=14;" parent="1" vertex="1">
          <mxGeometry x="877" y="675.5" width="200" height="60" as="geometry" />
        </mxCell>
        <mxCell id="20" value="Office of Human Resources" style="rounded=1;shadow=1;fontStyle=1;fontSize=14;" parent="1" vertex="1">
          <mxGeometry x="877" y="780" width="200" height="60" as="geometry" />
        </mxCell>
        <mxCell id="21" value="Office of Management " style="rounded=1;shadow=1;fontStyle=1;fontSize=14;" parent="1" vertex="1">
          <mxGeometry x="877" y="885.5" width="200" height="60" as="geometry" />
        </mxCell>
        <mxCell id="22" value="Office of Training Services" style="rounded=1;shadow=1;fontStyle=1;fontSize=14;" parent="1" vertex="1">
          <mxGeometry x="877" y="990" width="200" height="60" as="geometry" />
        </mxCell>
        <mxCell id="30" value="" style="edgeStyle=elbowEdgeStyle;elbow=vertical;strokeWidth=4;endArrow=block;endFill=1;fontStyle=1;strokeColor=#23445D;" parent="1" target="5" edge="1">
          <mxGeometry x="22" y="165.5" width="100" height="100" as="geometry">
            <mxPoint x="772" y="390" as="sourcePoint" />
            <mxPoint x="122" y="165.5" as="targetPoint" />
          </mxGeometry>
        </mxCell>
        <mxCell id="31" value="" style="edgeStyle=elbowEdgeStyle;elbow=vertical;strokeWidth=4;endArrow=block;endFill=1;fontStyle=1;strokeColor=#23445D;" parent="1" target="4" edge="1">
          <mxGeometry x="22" y="165.5" width="100" height="100" as="geometry">
            <mxPoint x="772" y="390" as="sourcePoint" />
            <mxPoint x="122" y="165.5" as="targetPoint" />
          </mxGeometry>
        </mxCell>
        <mxCell id="32" value="" style="edgeStyle=elbowEdgeStyle;elbow=vertical;strokeWidth=4;endArrow=block;endFill=1;fontStyle=1;strokeColor=#23445D;" parent="1" edge="1">
          <mxGeometry x="22" y="165.5" width="100" height="100" as="geometry">
            <mxPoint x="770" y="390" as="sourcePoint" />
            <mxPoint x="972" y="455.5" as="targetPoint" />
          </mxGeometry>
        </mxCell>
        <mxCell id="rq-8bAVdsfiI7tYzPObx-59" value="" style="edgeStyle=elbowEdgeStyle;elbow=vertical;strokeWidth=4;endArrow=block;endFill=1;fontStyle=1;strokeColor=#23445D;" edge="1" parent="1">
          <mxGeometry x="22" y="165.5" width="100" height="100" as="geometry">
            <mxPoint x="970" y="424.5" as="sourcePoint" />
            <mxPoint x="1192" y="450" as="targetPoint" />
            <Array as="points">
              <mxPoint x="1380" y="424.5" />
            </Array>
          </mxGeometry>
        </mxCell>
        <mxCell id="rq-8bAVdsfiI7tYzPObx-63" value="System Management Service" style="rounded=1;fillColor=#ffe6cc;strokeColor=#d79b00;shadow=1;fontStyle=1;fontSize=14;" vertex="1" parent="1">
          <mxGeometry x="1100" y="450" width="200" height="60" as="geometry" />
        </mxCell>
        <mxCell id="rq-8bAVdsfiI7tYzPObx-80" value="" style="endArrow=classic;startArrow=classic;html=1;rounded=0;fontSize=12;startSize=8;endSize=8;curved=1;entryX=0.5;entryY=1;entryDx=0;entryDy=0;exitX=0.5;exitY=0;exitDx=0;exitDy=0;" edge="1" parent="1" source="9" target="8">
          <mxGeometry width="50" height="50" relative="1" as="geometry">
            <mxPoint x="380" y="670.5" as="sourcePoint" />
            <mxPoint x="430" y="620.5" as="targetPoint" />
          </mxGeometry>
        </mxCell>
        <mxCell id="rq-8bAVdsfiI7tYzPObx-81" value="" style="endArrow=classic;startArrow=classic;html=1;rounded=0;fontSize=12;startSize=8;endSize=8;curved=1;entryX=0.5;entryY=1;entryDx=0;entryDy=0;" edge="1" parent="1" source="8" target="4">
          <mxGeometry width="50" height="50" relative="1" as="geometry">
            <mxPoint x="402" y="534.7893218813452" as="sourcePoint" />
            <mxPoint x="410" y="530" as="targetPoint" />
          </mxGeometry>
        </mxCell>
        <mxCell id="rq-8bAVdsfiI7tYzPObx-85" value="" style="endArrow=classic;startArrow=classic;html=1;rounded=0;fontSize=12;startSize=8;endSize=8;curved=1;entryX=0.5;entryY=1;entryDx=0;entryDy=0;" edge="1" parent="1">
          <mxGeometry width="50" height="50" relative="1" as="geometry">
            <mxPoint x="401.29" y="770" as="sourcePoint" />
            <mxPoint x="401.29" y="730" as="targetPoint" />
          </mxGeometry>
        </mxCell>
        <mxCell id="rq-8bAVdsfiI7tYzPObx-88" value="" style="endArrow=classic;startArrow=classic;html=1;rounded=0;fontSize=12;startSize=8;endSize=8;curved=1;entryX=0.5;entryY=0;entryDx=0;entryDy=0;exitX=0.5;exitY=1;exitDx=0;exitDy=0;" edge="1" parent="1" source="10" target="11">
          <mxGeometry width="50" height="50" relative="1" as="geometry">
            <mxPoint x="400" y="825.5" as="sourcePoint" />
            <mxPoint x="438" y="869.5" as="targetPoint" />
          </mxGeometry>
        </mxCell>
        <mxCell id="rq-8bAVdsfiI7tYzPObx-89" value="" style="endArrow=classic;startArrow=classic;html=1;rounded=0;fontSize=12;startSize=8;endSize=8;curved=1;entryX=0.5;entryY=1;entryDx=0;entryDy=0;" edge="1" parent="1">
          <mxGeometry width="50" height="50" relative="1" as="geometry">
            <mxPoint x="629.29" y="560" as="sourcePoint" />
            <mxPoint x="629.29" y="520" as="targetPoint" />
          </mxGeometry>
        </mxCell>
        <mxCell id="rq-8bAVdsfiI7tYzPObx-92" value="" style="endArrow=classic;startArrow=classic;html=1;rounded=0;fontSize=12;startSize=8;endSize=8;curved=1;entryX=0.5;entryY=1;entryDx=0;entryDy=0;exitX=0.5;exitY=0;exitDx=0;exitDy=0;" edge="1" parent="1" source="14" target="13">
          <mxGeometry width="50" height="50" relative="1" as="geometry">
            <mxPoint x="610" y="675.5" as="sourcePoint" />
            <mxPoint x="660" y="625.5" as="targetPoint" />
          </mxGeometry>
        </mxCell>
        <mxCell id="rq-8bAVdsfiI7tYzPObx-93" value="" style="endArrow=classic;startArrow=classic;html=1;rounded=0;fontSize=12;startSize=8;endSize=8;curved=1;exitX=0.5;exitY=1;exitDx=0;exitDy=0;" edge="1" parent="1" source="14" target="15">
          <mxGeometry width="50" height="50" relative="1" as="geometry">
            <mxPoint x="630" y="750" as="sourcePoint" />
            <mxPoint x="540" y="650" as="targetPoint" />
          </mxGeometry>
        </mxCell>
        <mxCell id="rq-8bAVdsfiI7tYzPObx-95" value="" style="endArrow=classic;startArrow=classic;html=1;rounded=0;fontSize=12;startSize=8;endSize=8;curved=1;entryX=0.5;entryY=1;entryDx=0;entryDy=0;exitX=0.5;exitY=0;exitDx=0;exitDy=0;" edge="1" parent="1" source="16" target="15">
          <mxGeometry width="50" height="50" relative="1" as="geometry">
            <mxPoint x="610" y="890" as="sourcePoint" />
            <mxPoint x="660" y="840" as="targetPoint" />
          </mxGeometry>
        </mxCell>
        <mxCell id="rq-8bAVdsfiI7tYzPObx-98" value="" style="endArrow=none;html=1;rounded=0;fontSize=12;startSize=8;endSize=8;curved=1;entryX=0.5;entryY=1;entryDx=0;entryDy=0;exitX=0.5;exitY=0;exitDx=0;exitDy=0;strokeWidth=3;" edge="1" parent="1" source="18" target="6">
          <mxGeometry width="50" height="50" relative="1" as="geometry">
            <mxPoint x="1000" y="750" as="sourcePoint" />
            <mxPoint x="1050" y="700" as="targetPoint" />
          </mxGeometry>
        </mxCell>
        <mxCell id="rq-8bAVdsfiI7tYzPObx-100" value="" style="endArrow=none;html=1;rounded=0;fontSize=12;startSize=8;endSize=8;curved=1;entryX=0.5;entryY=1;entryDx=0;entryDy=0;exitX=0.5;exitY=0;exitDx=0;exitDy=0;strokeWidth=3;" edge="1" parent="1" source="19" target="18">
          <mxGeometry width="50" height="50" relative="1" as="geometry">
            <mxPoint x="960" y="680" as="sourcePoint" />
            <mxPoint x="1010" y="630" as="targetPoint" />
          </mxGeometry>
        </mxCell>
        <mxCell id="rq-8bAVdsfiI7tYzPObx-101" value="" style="endArrow=none;html=1;rounded=0;fontSize=12;startSize=8;endSize=8;curved=1;entryX=0.5;entryY=0;entryDx=0;entryDy=0;exitX=0.5;exitY=1;exitDx=0;exitDy=0;strokeWidth=3;" edge="1" parent="1" source="19" target="20">
          <mxGeometry width="50" height="50" relative="1" as="geometry">
            <mxPoint x="1000" y="750" as="sourcePoint" />
            <mxPoint x="1050" y="700" as="targetPoint" />
          </mxGeometry>
        </mxCell>
        <mxCell id="rq-8bAVdsfiI7tYzPObx-102" value="" style="endArrow=none;html=1;rounded=0;fontSize=12;startSize=8;endSize=8;curved=1;entryX=0.5;entryY=1;entryDx=0;entryDy=0;exitX=0.5;exitY=0;exitDx=0;exitDy=0;strokeWidth=3;" edge="1" parent="1" source="21" target="20">
          <mxGeometry width="50" height="50" relative="1" as="geometry">
            <mxPoint x="960" y="890" as="sourcePoint" />
            <mxPoint x="1010" y="840" as="targetPoint" />
            <Array as="points">
              <mxPoint x="977" y="860" />
            </Array>
          </mxGeometry>
        </mxCell>
        <mxCell id="rq-8bAVdsfiI7tYzPObx-103" value="" style="endArrow=none;html=1;rounded=0;fontSize=12;startSize=8;endSize=8;curved=1;exitX=0.5;exitY=0;exitDx=0;exitDy=0;entryX=0.5;entryY=1;entryDx=0;entryDy=0;strokeWidth=3;" edge="1" parent="1" source="22" target="21">
          <mxGeometry width="50" height="50" relative="1" as="geometry">
            <mxPoint x="950" y="990" as="sourcePoint" />
            <mxPoint x="1000" y="940" as="targetPoint" />
          </mxGeometry>
        </mxCell>
      </root>
    </mxGraphModel>
  </diagram>
</mxfile>
